# xmcd
#
# Track frame offsets:
#	150
#	13386
#	26063
#	41664
#	57338
#	68737
#	79533
#	90335
#	102633
#	112572
#	123452
#	136310
#	149323
#	166085
#	179116
#	191226
#
# Disc length: 2720 seconds
#
# Revision: 1
# Processed by: cddbd v1.5.2PL0 Copyright (c) Steve Scherf et al.
# Submitted via: audiograbber 1.83.01
#
DISCID=dd0a9e10
DTITLE=Frank Nelson - I'll Share My World With You
DYEAR=1900
DGENRE=
TTITLE0=The Moon Behind The Hill
TTITLE1=I'll Share My World With You
TTITLE2=If I Needed You
TTITLE3=Do They Still Sing The Stone Outside Dan Murphy's Door
TTITLE4=North To Alaska
TTITLE5=Far Away Places
TTITLE6=Sea Cruise
TTITLE7=Walking Piece Of Heaven
TTITLE8=You Can't Break The Chains Of Love
TTITLE9=The Human Race
TTITLE10=Jamaica Farewell
TTITLE11=I Wonder If It's Raining Back Home in Donegal
TTITLE12=Galway Bay
TTITLE13=The Rambling House
TTITLE14=All My Dreams Gone To Waste
TTITLE15=We'll Meet Again My Friends
EXTD=
EXTT0=
EXTT1=
EXTT2=
EXTT3=
EXTT4=
EXTT5=
EXTT6=
EXTT7=
EXTT8=
EXTT9=
EXTT10=
EXTT11=
EXTT12=
EXTT13=
EXTT14=
EXTT15=
PLAYORDER=
